<svg width="45" height="45" viewBox="0 0 45 45" fill="none" xmlns="http://www.w3.org/2000/svg">
<path fill-rule="evenodd" clip-rule="evenodd" d="M37.2129 11.662C38.5384 11.4437 39.6951 11.9405 40.4813 12.7405C41.274 13.5471 41.7117 14.6699 41.7118 15.7617C41.7118 17.1095 40.9855 18.05 40.1939 18.642C39.4571 19.1928 38.5602 19.5299 37.8648 19.7626L37.8629 19.7607C37.8068 19.7796 37.7496 19.7945 37.6926 19.8102L37.6945 19.812L30.1945 22.1484C29.9721 22.2233 29.8049 22.2971 29.6818 22.3554C29.6749 22.5359 29.6799 22.8196 29.7312 23.2361L29.8246 23.8458L29.8301 23.8733L29.8337 23.9026L30.308 27.2058L33.0399 38.3844L33.1278 38.8092L33.1296 38.8147L33.1736 39.2523C33.2152 40.2681 32.8199 41.2397 32.0786 41.9586C31.2414 42.7705 30.0634 43.1781 28.7681 43.1781C27.5621 43.1781 26.5154 42.7896 25.7267 42.0026C24.9852 41.2623 24.6211 40.3164 24.4266 39.4647L24.4193 39.4281C24.419 39.4268 24.418 39.4233 24.4175 39.4208C24.4164 39.4155 24.4141 39.4073 24.412 39.397C24.4076 39.3756 24.4006 39.3436 24.3918 39.3018C24.3742 39.217 24.3488 39.0912 24.3149 38.9319C24.2471 38.6122 24.1475 38.1538 24.0256 37.6044C23.7816 36.5039 23.445 35.0423 23.0735 33.5852C22.8742 32.8035 22.6668 32.0351 22.4619 31.3312C22.3096 31.8735 22.1565 32.4565 22.006 33.0579C21.3107 35.8359 20.7463 38.6862 20.5686 39.4647C20.3741 40.3164 20.0101 41.2623 19.2686 42.0026C18.4798 42.7896 17.4332 43.1781 16.2272 43.1781C14.9353 43.1781 13.7607 42.7721 12.924 41.9641C12.0776 41.1466 11.6777 39.9998 11.8656 38.8312L11.8711 38.7964L11.8766 38.7634L11.8967 38.6682C11.9068 38.6152 11.9173 38.5619 11.9297 38.5089L11.9315 38.5016L14.6287 27.193L15.1047 23.9008L15.1084 23.8715L15.1139 23.844C15.1626 23.5723 15.2399 23.1195 15.2714 22.6575C15.287 22.4275 15.2895 22.2268 15.2769 22.0679L15.275 22.066C15.2358 22.05 15.1907 22.0285 15.1359 22.0093L5.9458 19.4513V19.2993C5.5491 19.1174 5.14688 18.8976 4.78491 18.6237C4.00057 18.03 3.28711 17.0934 3.28711 15.7599C3.28731 14.6673 3.72761 13.5448 4.52124 12.7387C5.36096 11.8857 6.62084 11.3799 8.05701 11.7169L8.05518 11.7188C8.3052 11.777 8.55182 11.847 8.79492 11.9275C11.0619 12.5011 17.7437 14.0752 22.4619 14.0753C27.5506 14.0753 34.9154 12.2456 36.5537 11.8176C36.6373 11.7945 36.7261 11.773 36.8174 11.7499L36.843 11.7407L36.9016 11.7261L36.9401 11.7169L36.9456 11.7151L37.2129 11.662ZM37.7146 15.0018L37.7128 15L37.7036 15.0018L37.7054 15.0037L37.6652 15.0147C37.5988 15.0312 37.5284 15.0505 37.4528 15.0714L37.4308 15.0769C35.8868 15.481 28.0723 17.45 22.4619 17.45C17.2401 17.4499 10.1264 15.7454 7.93066 15.1886L7.86292 15.1721L7.79517 15.1483C7.6306 15.0916 7.4617 15.0437 7.2898 15.0037L7.28613 15.0018C7.17355 14.9754 7.11425 14.9888 7.08472 14.9982C7.04813 15.0098 6.9921 15.0385 6.92542 15.1062C6.77167 15.2626 6.66381 15.5271 6.66357 15.7599C6.66357 15.768 6.66322 15.7745 6.66357 15.7782L6.7002 15.8258C6.7244 15.8519 6.76377 15.8873 6.82288 15.932C7.08839 16.1329 7.52864 16.3334 8.17053 16.5491L8.48364 16.6534L16.11 18.7793L16.1576 18.7921L16.2034 18.8068C16.7229 18.9845 17.1804 19.2065 17.5565 19.5099C17.971 19.8443 18.2078 20.2135 18.353 20.5499C18.7024 21.3545 18.678 22.3111 18.6387 22.8882C18.5963 23.5083 18.4979 24.0832 18.4446 24.3823L17.9557 27.7661L17.9447 27.8412L17.9264 27.9163L15.2146 39.2743L15.2164 39.2761C15.2149 39.2829 15.2127 39.2921 15.2109 39.3018L15.2036 39.3384L15.1963 39.3732C15.1903 39.4165 15.1943 39.4651 15.2677 39.5361C15.3548 39.6203 15.6269 39.8035 16.2272 39.8035C16.6725 39.8035 16.817 39.6823 16.8845 39.6149C16.9988 39.5008 17.1568 39.2457 17.2782 38.714C17.4166 38.1076 18.0321 35.0364 18.7321 32.2394C19.0842 30.8323 19.4767 29.4137 19.8691 28.3283C20.0615 27.7962 20.2802 27.2662 20.5283 26.8433C20.6497 26.6364 20.8243 26.3777 21.0612 26.1493C21.2755 25.9427 21.7532 25.558 22.4619 25.5579L22.7402 25.578C23.3592 25.6695 23.7596 26.0474 23.9194 26.2152C24.1443 26.4514 24.312 26.7197 24.4321 26.9367C24.6794 27.3832 24.9088 27.9496 25.1151 28.5315C25.5352 29.7162 25.9649 31.2572 26.3456 32.7503C26.729 34.2539 27.0731 35.7536 27.3215 36.8738C27.4459 37.4345 27.5467 37.9026 27.6163 38.2306C27.651 38.3941 27.6784 38.5229 27.6969 38.6115L27.717 38.714L27.8141 39.0637C27.9151 39.3645 28.0251 39.5294 28.1107 39.6149C28.1783 39.6823 28.3228 39.8034 28.7681 39.8035C29.3683 39.8035 29.64 39.6206 29.7275 39.5361C29.8042 39.4618 29.8067 39.4112 29.799 39.364C29.7895 39.309 29.7779 39.2521 29.7642 39.1974L29.7605 39.1846L27.0121 27.9254L26.9919 27.8467L26.981 27.7661L26.4939 24.3842C26.1541 22.4484 26.3113 21.3134 26.6825 20.6159L26.7136 20.5481L26.7539 20.484C26.7565 20.4798 26.7586 20.4753 26.7612 20.4712L26.7887 20.4291L26.8088 20.3998C27.0699 20.0153 27.4469 19.7468 27.728 19.5758C28.092 19.3545 28.557 19.1411 29.1343 18.9478L29.1672 18.9368L36.6892 16.5894L36.746 16.5729L36.7936 16.5619L37.2459 16.4008C37.6609 16.2428 37.9668 16.0912 38.1724 15.9375C38.2941 15.8464 38.3313 15.7901 38.3372 15.78C38.3375 15.7764 38.3372 15.7701 38.3372 15.7617C38.337 15.5287 38.228 15.2634 38.0735 15.1062C38.0067 15.0383 37.9507 15.0098 37.9142 14.9982C37.8846 14.9889 37.826 14.9757 37.7146 15.0018ZM29.6122 22.2656C29.6162 22.2595 29.6228 22.2537 29.6268 22.2473C29.6302 22.2418 29.6329 22.2361 29.636 22.2308L29.6342 22.229C29.6268 22.2413 29.6198 22.2536 29.6122 22.2656Z" fill="#020203"/>
<path fill-rule="evenodd" clip-rule="evenodd" d="M21.4036 1.41724C22.4945 1.20035 23.626 1.31201 24.6537 1.73767C25.6809 2.16337 26.559 2.88414 27.1769 3.8086C27.7948 4.73354 28.1254 5.82185 28.1254 6.93421C28.1236 8.42535 27.53 9.85502 26.4756 10.9094L26.0636 11.283C25.0631 12.103 23.8053 12.5578 22.5004 12.5592L22.0847 12.5446C21.2567 12.4832 20.4526 12.2376 19.73 11.8286L19.3748 11.6107C18.5656 11.0699 17.9117 10.3297 17.476 9.46473L17.3038 9.08753C16.9314 8.18834 16.7993 7.20891 16.9175 6.24756L16.9834 5.83741C17.1733 4.88274 17.6071 3.99484 18.2395 3.26111L18.5233 2.95716C19.2117 2.26875 20.0652 1.77296 20.9989 1.51429L21.4036 1.41724ZM22.0609 4.72779C21.6247 4.81469 21.2237 5.02851 20.9092 5.34302C20.5948 5.65752 20.3808 6.05865 20.2939 6.49475C20.2073 6.93097 20.252 7.3839 20.4221 7.7948C20.5924 8.20567 20.88 8.55842 21.2498 8.80555C21.6192 9.05232 22.0543 9.18238 22.4985 9.18274C23.0953 9.18163 23.6677 8.94546 24.0897 8.52356C24.5112 8.10206 24.749 7.5302 24.7507 6.93421L24.7251 6.60279C24.6764 6.2757 24.5569 5.96087 24.3717 5.6836C24.1245 5.31372 23.772 5.02624 23.361 4.85596C22.9499 4.68573 22.4973 4.64099 22.0609 4.72779Z" fill="#020203"/>
</svg>
