<svg width="45" height="45" viewBox="0 0 45 45" fill="none" xmlns="http://www.w3.org/2000/svg">
<path fill-rule="evenodd" clip-rule="evenodd" d="M37.2129 11.6621C38.5384 11.4439 39.6951 11.9407 40.4813 12.7406C41.274 13.5472 41.7117 14.67 41.7118 15.7618C41.7118 17.1096 40.9855 18.0501 40.1939 18.6421C39.4571 19.1929 38.5602 19.53 37.8648 19.7627L37.8629 19.7609C37.8068 19.7797 37.7496 19.7946 37.6926 19.8103L37.6945 19.8121L30.1945 22.1486C29.9721 22.2235 29.8049 22.2972 29.6818 22.3555C29.6749 22.536 29.6799 22.8197 29.7312 23.2362L29.8246 23.846L29.8301 23.8734L29.8337 23.9027L30.308 27.2059L33.0399 38.3845L33.1278 38.8093L33.1296 38.8148L33.1736 39.2524C33.2152 40.2682 32.8199 41.2398 32.0786 41.9587C31.2414 42.7707 30.0634 43.1782 28.7681 43.1782C27.5621 43.1782 26.5154 42.7897 25.7267 42.0027C24.9852 41.2624 24.6211 40.3165 24.4266 39.4649L24.4193 39.4282C24.419 39.4269 24.418 39.4235 24.4175 39.4209C24.4164 39.4156 24.4141 39.4074 24.412 39.3971C24.4076 39.3757 24.4006 39.3437 24.3918 39.3019C24.3742 39.2172 24.3488 39.0913 24.3149 38.932C24.2471 38.6124 24.1475 38.1539 24.0256 37.6045C23.7816 36.5041 23.445 35.0424 23.0735 33.5853C22.8742 32.8037 22.6668 32.0352 22.4619 31.3313C22.3096 31.8736 22.1565 32.4566 22.006 33.058C21.3107 35.8361 20.7463 38.6863 20.5686 39.4649C20.3741 40.3165 20.0101 41.2624 19.2686 42.0027C18.4798 42.7898 17.4332 43.1782 16.2272 43.1782C14.9353 43.1782 13.7607 42.7722 12.924 41.9642C12.0776 41.1467 11.6777 39.9999 11.8656 38.8313L11.8711 38.7965L11.8766 38.7636L11.8967 38.6683C11.9068 38.6153 11.9173 38.562 11.9297 38.509L11.9315 38.5017L14.6287 27.1931L15.1047 23.9009L15.1084 23.8716L15.1139 23.8441C15.1626 23.5724 15.2399 23.1197 15.2714 22.6576C15.287 22.4276 15.2895 22.227 15.2769 22.068L15.275 22.0662C15.2358 22.0502 15.1907 22.0286 15.1359 22.0094L5.9458 19.4514V19.2994C5.5491 19.1176 5.14688 18.8977 4.78491 18.6238C4.00057 18.0301 3.28711 17.0935 3.28711 15.76C3.28731 14.6675 3.72761 13.5449 4.52124 12.7388C5.36096 11.8859 6.62084 11.38 8.05701 11.717L8.05518 11.7189C8.3052 11.7771 8.55182 11.8472 8.79492 11.9276C11.0619 12.5013 17.7437 14.0754 22.4619 14.0754C27.5506 14.0754 34.9154 12.2457 36.5537 11.8178C36.6373 11.7946 36.7261 11.7731 36.8174 11.75L36.843 11.7408L36.9016 11.7262L36.9401 11.717L36.9456 11.7152L37.2129 11.6621ZM37.7146 15.002L37.7128 15.0001L37.7036 15.002L37.7054 15.0038L37.6652 15.0148C37.5988 15.0313 37.5284 15.0506 37.4528 15.0715L37.4308 15.077C35.8868 15.4811 28.0723 17.4501 22.4619 17.4501C17.2401 17.45 10.1264 15.7455 7.93066 15.1887L7.86292 15.1722L7.79517 15.1484C7.6306 15.0917 7.4617 15.0438 7.2898 15.0038L7.28613 15.002C7.17355 14.9755 7.11425 14.989 7.08472 14.9983C7.04813 15.0099 6.9921 15.0386 6.92542 15.1063C6.77167 15.2627 6.66381 15.5272 6.66357 15.76C6.66357 15.7681 6.66322 15.7746 6.66357 15.7783L6.7002 15.8259C6.7244 15.852 6.76377 15.8874 6.82288 15.9321C7.08839 16.133 7.52864 16.3335 8.17053 16.5492L8.48364 16.6536L16.11 18.7794L16.1576 18.7922L16.2034 18.8069C16.7229 18.9846 17.1804 19.2067 17.5565 19.51C17.971 19.8444 18.2078 20.2136 18.353 20.5501C18.7024 21.3546 18.678 22.3112 18.6387 22.8883C18.5963 23.5085 18.4979 24.0833 18.4446 24.3825L17.9557 27.7662L17.9447 27.8413L17.9264 27.9164L15.2146 39.2744L15.2164 39.2763C15.2149 39.283 15.2127 39.2923 15.2109 39.3019L15.2036 39.3385L15.1963 39.3733C15.1903 39.4166 15.1943 39.4652 15.2677 39.5363C15.3548 39.6204 15.6269 39.8036 16.2272 39.8036C16.6725 39.8036 16.817 39.6824 16.8845 39.615C16.9988 39.5009 17.1568 39.2459 17.2782 38.7141C17.4166 38.1077 18.0321 35.0365 18.7321 32.2395C19.0842 30.8324 19.4767 29.4138 19.8691 28.3284C20.0615 27.7963 20.2802 27.2664 20.5283 26.8434C20.6497 26.6366 20.8243 26.3778 21.0612 26.1494C21.2755 25.9428 21.7532 25.5581 22.4619 25.558L22.7402 25.5781C23.3592 25.6696 23.7596 26.0475 23.9194 26.2153C24.1443 26.4516 24.312 26.7198 24.4321 26.9368C24.6794 27.3833 24.9088 27.9498 25.1151 28.5316C25.5352 29.7163 25.9649 31.2574 26.3456 32.7504C26.729 34.254 27.0731 35.7537 27.3215 36.8739C27.4459 37.4346 27.5467 37.9027 27.6163 38.2307C27.651 38.3942 27.6784 38.5231 27.6969 38.6116L27.717 38.7141L27.8141 39.0638C27.9151 39.3646 28.0251 39.5295 28.1107 39.615C28.1783 39.6824 28.3228 39.8036 28.7681 39.8036C29.3683 39.8036 29.64 39.6207 29.7275 39.5363C29.8042 39.4619 29.8067 39.4113 29.799 39.3641C29.7895 39.3091 29.7779 39.2523 29.7642 39.1975L29.7605 39.1847L27.0121 27.9255L26.9919 27.8468L26.981 27.7662L26.4939 24.3843C26.1541 22.4486 26.3113 21.3135 26.6825 20.616L26.7136 20.5482L26.7539 20.4841C26.7565 20.48 26.7586 20.4754 26.7612 20.4713L26.7887 20.4292L26.8088 20.3999C27.0699 20.0154 27.4469 19.7469 27.728 19.5759C28.092 19.3546 28.557 19.1412 29.1343 18.9479L29.1672 18.9369L36.6892 16.5895L36.746 16.573L36.7936 16.562L37.2459 16.4009C37.6609 16.243 37.9668 16.0913 38.1724 15.9376C38.2941 15.8465 38.3313 15.7902 38.3372 15.7802C38.3375 15.7765 38.3372 15.7702 38.3372 15.7618C38.337 15.5289 38.228 15.2635 38.0735 15.1063C38.0067 15.0384 37.9507 15.0099 37.9142 14.9983C37.8846 14.989 37.826 14.9759 37.7146 15.002ZM29.6122 22.2658C29.6162 22.2596 29.6228 22.2539 29.6268 22.2474C29.6302 22.2419 29.6329 22.2362 29.636 22.231L29.6342 22.2291C29.6268 22.2414 29.6198 22.2537 29.6122 22.2658Z" fill="#020203"/>
<path fill-rule="evenodd" clip-rule="evenodd" d="M21.4036 1.41736C22.4945 1.20047 23.626 1.31213 24.6537 1.7378C25.6809 2.1635 26.559 2.88426 27.1769 3.80872C27.7948 4.73366 28.1254 5.82197 28.1254 6.93433C28.1236 8.42548 27.53 9.85514 26.4756 10.9095L26.0636 11.2831C25.0631 12.1031 23.8053 12.5579 22.5004 12.5593L22.0847 12.5447C21.2567 12.4833 20.4526 12.2377 19.73 11.8287L19.3748 11.6108C18.5656 11.07 17.9117 10.3299 17.476 9.46485L17.3038 9.08765C16.9314 8.18846 16.7993 7.20903 16.9175 6.24768L16.9834 5.83753C17.1733 4.88286 17.6071 3.99496 18.2395 3.26123L18.5233 2.95728C19.2117 2.26887 20.0652 1.77308 20.9989 1.51441L21.4036 1.41736ZM22.0609 4.72791C21.6247 4.81481 21.2237 5.02863 20.9092 5.34314C20.5948 5.65764 20.3808 6.05877 20.2939 6.49488C20.2073 6.93109 20.252 7.38402 20.4221 7.79493C20.5924 8.20579 20.88 8.55854 21.2498 8.80567C21.6192 9.05245 22.0543 9.1825 22.4985 9.18286C23.0953 9.18176 23.6677 8.94558 24.0897 8.52369C24.5112 8.10218 24.749 7.53032 24.7507 6.93433L24.7251 6.60291C24.6764 6.27582 24.5569 5.96099 24.3717 5.68372C24.1245 5.31384 23.772 5.02637 23.361 4.85608C22.9499 4.68586 22.4973 4.64111 22.0609 4.72791Z" fill="#020203"/>
</svg>
