<svg width="16" height="16" viewBox="0 0 16 16" fill="none" xmlns="http://www.w3.org/2000/svg">
<path d="M3.49393 6.0821C3.72825 5.8478 4.10858 5.84779 4.34289 6.0821L7.65539 9.3946C7.79412 9.53333 7.8734 9.6122 7.93534 9.66478C7.95388 9.6805 7.96686 9.69005 7.9744 9.69538C7.98127 9.69647 7.98836 9.69645 7.99523 9.69538C8.00278 9.69006 8.016 9.68086 8.03495 9.66478C8.09693 9.61216 8.17601 9.53348 8.3149 9.3946L11.6274 6.0821L11.673 6.04108C11.9086 5.84882 12.256 5.86252 12.4757 6.0821C12.6951 6.30172 12.7093 6.64925 12.5174 6.88483L12.4757 6.93041L9.16385 10.2429C9.03887 10.3679 8.91968 10.4878 8.81164 10.5795C8.69833 10.6757 8.55795 10.7757 8.37674 10.8347C8.12244 10.9173 7.84786 10.9173 7.59354 10.8347L7.46529 10.7833C7.34414 10.7258 7.24363 10.6516 7.15865 10.5795C7.05066 10.4878 6.93135 10.3678 6.80643 10.2429L3.49393 6.93041C3.25986 6.69612 3.25981 6.31636 3.49393 6.0821Z" fill="#020203"/>
</svg>
