<svg width="16" height="16" viewBox="0 0 16 16" fill="none" xmlns="http://www.w3.org/2000/svg">
<path d="M5.96889 3.62598C6.26181 3.33322 6.72504 3.31503 7.03921 3.57129L7.09975 3.62598L10.1596 6.68588C10.2823 6.80853 10.4091 6.93409 10.5073 7.04981C10.6116 7.17263 10.7299 7.33599 10.8003 7.55241C10.896 7.84696 10.896 8.16477 10.8003 8.45931L10.7723 8.53809C10.701 8.71593 10.5985 8.85448 10.5073 8.96192C10.4091 9.07758 10.2822 9.20326 10.1596 9.32585L7.09975 12.3857L7.03921 12.4404C6.72505 12.6966 6.26176 12.6784 5.96889 12.3857C5.65655 12.0734 5.65665 11.5667 5.96889 11.2542L9.02879 8.19434C9.09588 8.12725 9.14859 8.07401 9.1935 8.02767C9.20063 8.02032 9.20734 8.01283 9.21368 8.00619C9.20719 7.99939 9.20081 7.9916 9.1935 7.98405C9.14856 7.93767 9.09596 7.88456 9.02879 7.81739L5.96889 4.75749L5.91355 4.69694C5.65723 4.38278 5.67613 3.91892 5.96889 3.62598Z" fill="#626D7A"/>
</svg>
