<svg width="16" height="16" viewBox="0 0 16 16" fill="none" xmlns="http://www.w3.org/2000/svg">
<path d="M8.90898 3.62894C9.2214 3.31679 9.72815 3.31666 10.0405 3.62894C10.3528 3.94127 10.3527 4.44801 10.0405 4.76045L6.98385 7.81644C6.91681 7.88348 6.86403 7.93679 6.81914 7.9831C6.81187 7.9906 6.80477 7.99847 6.79831 8.00524C6.80484 8.01208 6.81177 8.01977 6.81914 8.02737C6.86408 8.07375 6.91669 8.12688 6.98385 8.19404L10.0405 11.25L10.0952 11.3112C10.3513 11.6253 10.3331 12.0886 10.0405 12.3815C9.74762 12.6744 9.2844 12.6925 8.97018 12.4362L8.90898 12.3815L5.85299 9.3249C5.73034 9.20225 5.60356 9.07667 5.50534 8.96097C5.40107 8.83812 5.28269 8.67478 5.21237 8.45836C5.11674 8.16386 5.11668 7.8466 5.21237 7.55211L5.24036 7.47334C5.31159 7.2955 5.41413 7.15696 5.50534 7.04951C5.60355 6.93386 5.73042 6.80815 5.85299 6.68558L8.90898 3.62894Z" fill="#626D7A"/>
</svg>
