<svg width="24" height="24" viewBox="0 0 24 24" fill="none" xmlns="http://www.w3.org/2000/svg">
<path d="M8.79297 3.36621C10.6563 3.36621 11.5882 3.36656 12.3232 3.6709C13.3033 4.0769 14.0823 4.85589 14.4883 5.83594C14.7403 6.44463 14.7835 7.34902 14.791 8.7002C14.7938 9.19703 14.3903 9.60032 13.8936 9.60059C13.3966 9.60059 12.9936 9.19719 12.9912 8.7002C12.9885 8.11962 12.9811 7.62398 12.959 7.2998C12.9351 6.9503 12.8979 6.75155 12.8613 6.62695L12.8252 6.52441C12.6299 6.05291 12.278 5.6657 11.832 5.42676L11.6348 5.33398C11.5232 5.28775 11.3252 5.23201 10.8594 5.2002C10.3771 5.16729 9.74934 5.16602 8.79297 5.16602C7.83662 5.16602 7.20888 5.1673 6.72656 5.2002C6.37721 5.22405 6.17832 5.26125 6.05371 5.29785L5.95117 5.33398C5.47963 5.52931 5.09246 5.88117 4.85352 6.32715L4.76074 6.52441C4.7145 6.63605 4.65876 6.83386 4.62695 7.2998C4.59404 7.78215 4.59277 8.4097 4.59277 9.36621V14.6338C4.59277 15.5903 4.59404 16.2178 4.62695 16.7002C4.65876 17.1661 4.7145 17.364 4.76074 17.4756L4.85352 17.6729C5.09246 18.1188 5.47963 18.4707 5.95117 18.666L6.05371 18.7021C6.17832 18.7387 6.37721 18.776 6.72656 18.7998C7.20888 18.8327 7.83662 18.834 8.79297 18.834C9.74934 18.834 10.3771 18.8327 10.8594 18.7998C11.3252 18.768 11.5232 18.7122 11.6348 18.666L11.832 18.5732C12.278 18.3343 12.6299 17.9471 12.8252 17.4756L12.8613 17.373C12.8979 17.2485 12.9351 17.0497 12.959 16.7002C12.9811 16.3757 12.9885 15.8798 12.9912 15.2988C12.9936 14.8027 13.3955 14.4004 13.8916 14.4004C14.3889 14.4004 14.7917 14.8044 14.79 15.3018L14.7881 15.8682C14.7738 16.9508 14.7165 17.6128 14.4883 18.1641L14.4082 18.3457C13.9846 19.2404 13.2421 19.9484 12.3232 20.3291L12.1836 20.3828C11.4687 20.6338 10.5403 20.6338 8.79297 20.6338C7.04569 20.6338 6.11724 20.6337 5.40234 20.3828L5.2627 20.3291C4.3438 19.9485 3.60138 19.2404 3.17773 18.3457L3.09766 18.1641C2.86939 17.6128 2.81212 16.9509 2.79785 15.8682L2.79297 14.6338V9.36621C2.79297 7.61876 2.79299 6.69051 3.04395 5.97559L3.09766 5.83594C3.4783 4.91705 4.18636 4.1746 5.08105 3.75098L5.2627 3.6709C5.9977 3.36664 6.92965 3.36621 8.79297 3.36621Z" fill="#ECECEC"/>
<path d="M18.1797 8.06738C18.5091 7.73798 19.0303 7.71684 19.3838 8.00488L19.4521 8.06738L22.75 11.3633C23.1011 11.7146 23.1009 12.2843 22.75 12.6357L19.4521 15.9346C19.1008 16.2854 18.531 16.2854 18.1797 15.9346C17.8283 15.5832 17.8285 15.0126 18.1797 14.6611L19.9404 12.9004H9.43457L9.3418 12.8955C8.88841 12.8493 8.53462 12.4665 8.53418 12.001C8.53418 11.5351 8.88815 11.1517 9.3418 11.1055L9.43457 11.1006H19.9404L18.1797 9.33984L18.1182 9.27148C17.8298 8.91814 17.8505 8.39697 18.1797 8.06738Z" fill="#ECECEC"/>
</svg>
