<svg width="16" height="16" viewBox="0 0 16 16" fill="none" xmlns="http://www.w3.org/2000/svg">
<path d="M13.834 3.86658L13.916 3.87113C14.3193 3.91222 14.6341 4.25258 14.6341 4.66671C14.6341 5.08083 14.3193 5.42119 13.916 5.46228L13.834 5.46684H2.16732C1.72549 5.46684 1.36719 5.10854 1.36719 4.66671C1.36719 4.22488 1.72549 3.86658 2.16732 3.86658H13.834Z" fill="#010202"/>
<path d="M12.084 7.19991L12.166 7.20447C12.5693 7.24556 12.8841 7.58592 12.8841 8.00004C12.8841 8.41416 12.5693 8.75452 12.166 8.79561L12.084 8.80017H3.91732C3.47549 8.80017 3.11719 8.44187 3.11719 8.00004C3.11719 7.55821 3.47549 7.19991 3.91732 7.19991H12.084Z" fill="#010202"/>
<path d="M10.334 10.5332L10.416 10.5378C10.8193 10.5789 11.1341 10.9193 11.1341 11.3334C11.1341 11.7475 10.8193 12.0879 10.416 12.1289L10.334 12.1335H5.66732C5.22549 12.1335 4.86719 11.7752 4.86719 11.3334C4.86719 10.8915 5.22549 10.5332 5.66732 10.5332H10.334Z" fill="#010202"/>
</svg>
