<svg width="81" height="39" viewBox="0 0 81 39" fill="none" xmlns="http://www.w3.org/2000/svg">
<path d="M68.8495 39C66.1254 39 63.8136 38.3682 61.914 37.1047C60.0143 35.8051 58.5448 34.0361 57.5054 31.7978C56.5018 29.5235 56 26.9242 56 24C56 21.0758 56.5018 18.4946 57.5054 16.2563C58.509 13.982 59.9427 12.213 61.8065 10.9495C63.7061 9.64982 65.9821 9 68.6344 9C71.1792 9 73.3835 9.61372 75.2473 10.8412C77.1111 12.0686 78.5269 13.8014 79.4946 16.0397C80.4982 18.278 81 20.8953 81 23.8917C81 24.5197 80.4909 25.0289 79.8628 25.0289H59.7097C59.853 28.4224 60.7312 31.0397 62.3441 32.8809C63.957 34.6859 66.1254 35.5884 68.8495 35.5884C70.9283 35.5884 72.6308 35.083 73.957 34.0722C74.8881 33.3625 75.616 32.4926 76.1408 31.4626C76.5407 30.6774 77.323 30.1092 78.202 30.1716C79.3955 30.2563 80.2177 31.4268 79.6866 32.499C78.9067 34.0738 77.8032 35.4286 76.3763 36.5632C74.3333 38.1877 71.8244 39 68.8495 39ZM59.7097 21.8339H77.129C76.9498 18.7653 76.1075 16.4368 74.6022 14.8484C73.0968 13.2238 71.1075 12.4116 68.6344 12.4116C66.1613 12.4116 64.1362 13.2238 62.5591 14.8484C60.9821 16.4729 60.0323 18.8014 59.7097 21.8339Z" fill="#020203"/>
<path d="M44.795 38C43.8036 38 43 37.1964 43 36.205V11.5722C43 10.7039 43.7039 10 44.5722 10C45.4231 10 46.1196 10.677 46.1438 11.5276L46.318 17.6604L45.8285 17.3962C46.2999 14.8956 47.152 13.0465 48.3849 11.8491C49.6179 10.6164 51.3222 10 53.4979 10H54.3094C55.2431 10 56 10.7569 56 11.6906C56 12.6242 55.2431 13.3811 54.3094 13.3811H53.3891C51.9386 13.3811 50.7057 13.6981 49.6904 14.3321C48.675 14.9308 47.8954 15.7937 47.3515 16.9208C46.8438 18.0478 46.59 19.3862 46.59 20.9358V36.205C46.59 37.1964 45.7863 38 44.795 38Z" fill="#020203"/>
<path d="M35 38C34.006 38 33.2001 37.1942 33.2001 36.2001V11.7932C33.2001 10.7992 34.006 9.99335 35 9.99335C35.994 9.99335 36.7999 10.7992 36.7999 11.7932V36.2001C36.7999 37.1942 35.994 38 35 38ZM33.5481 4.8769C32.7009 4.233 32.554 3.01607 33.2236 2.18907L33.8454 1.42112C34.4866 0.629293 35.6408 0.489961 36.4519 1.10647C37.2991 1.75037 37.446 2.9673 36.7764 3.7943L36.1546 4.56225C35.5134 5.35408 34.3592 5.49341 33.5481 4.8769Z" fill="#020203"/>
<path d="M1.78599 38C0.799616 38 0 37.2004 0 36.214V1.78599C0 0.799614 0.799616 0 1.78599 0C2.77237 0 3.57198 0.799616 3.57198 1.78599V18.3577L1.89105 17.0197H25.1089L23.428 18.3577V1.78599C23.428 0.799617 24.2276 0 25.214 0C26.2004 0 27 0.799616 27 1.78599V36.214C27 37.2004 26.2004 38 25.214 38C24.2276 38 23.428 37.2004 23.428 36.214V19.1606L25.1089 20.5521H1.89105L3.57198 19.1606V36.214C3.57198 37.2004 2.77237 38 1.78599 38Z" fill="#020203"/>
</svg>
