<svg width="24" height="24" viewBox="0 0 24 24" fill="none" xmlns="http://www.w3.org/2000/svg">
<path d="M17.0088 14.9502C18.0157 14.9502 18.8771 15.5709 19.2334 16.4502H20.2021C20.699 16.4504 21.1025 16.8537 21.1025 17.3506C21.1024 17.8474 20.6989 18.2507 20.2021 18.251H19.2334C18.877 19.1302 18.0157 19.751 17.0088 19.751C16.0019 19.751 15.1405 19.1302 14.7842 18.251H3.79785L3.70605 18.2461C3.25241 18.1999 2.89857 17.8164 2.89844 17.3506C2.89844 16.8847 3.25233 16.5013 3.70605 16.4551L3.79785 16.4502H14.7842C15.1405 15.5709 16.0019 14.9502 17.0088 14.9502Z" fill="#626D7A"/>
<path d="M7.00879 9.59961C8.01572 9.59961 8.87708 10.2203 9.2334 11.0996H20.2021C20.699 11.0999 21.1025 11.5031 21.1025 12C21.1025 12.4969 20.699 12.9001 20.2021 12.9004H9.2334C8.87708 13.7797 8.01572 14.4004 7.00879 14.4004C6.00185 14.4004 5.1405 13.7797 4.78418 12.9004H3.79883L3.70703 12.8955C3.25302 12.8496 2.89844 12.4661 2.89844 12C2.89847 11.5339 3.25304 11.1504 3.70703 11.1045L3.79883 11.0996H4.78418C5.1405 10.2203 6.00185 9.59961 7.00879 9.59961Z" fill="#626D7A"/>
<path d="M17.0088 4.24902C18.0156 4.24902 18.877 4.86979 19.2334 5.74902H20.2021C20.6989 5.74928 21.1023 6.15268 21.1025 6.64941C21.1025 7.14631 20.699 7.54955 20.2021 7.5498H19.2334C18.8771 8.42908 18.0157 9.0498 17.0088 9.0498C16.0019 9.0498 15.1405 8.42908 14.7842 7.5498H3.79883L3.70703 7.54492C3.25302 7.499 2.89844 7.11553 2.89844 6.64941C2.89862 6.18346 3.25314 5.79981 3.70703 5.75391L3.79883 5.74902H14.7842C15.1406 4.86979 16.002 4.24902 17.0088 4.24902Z" fill="#626D7A"/>
</svg>
