<svg width="16" height="16" viewBox="0 0 16 16" fill="none" xmlns="http://www.w3.org/2000/svg">
<path d="M7.99968 8.96415C9.30791 8.96415 10.5914 9.29974 11.6514 9.93225C12.6453 10.5254 13.4066 11.36 13.7998 12.3385L13.8734 12.5358L13.8903 12.595C13.9597 12.891 13.7953 13.1976 13.5016 13.2988C13.208 13.3999 12.8896 13.2597 12.7621 12.9837L12.7393 12.9264L12.6865 12.7864C12.4054 12.0871 11.8417 11.4433 11.0368 10.9628C10.178 10.4503 9.10991 10.1647 7.99968 10.1647C6.88956 10.1647 5.82195 10.4504 4.96323 10.9628C4.10479 11.4752 3.52031 12.1733 3.26075 12.9264C3.15284 13.2396 2.81163 13.4066 2.49838 13.2988C2.18512 13.1908 2.01871 12.849 2.12664 12.5358C2.49312 11.4722 3.28804 10.5649 4.34799 9.93225C5.40788 9.29971 6.69148 8.96421 7.99968 8.96415Z" fill="#626D7A"/>
<path fill-rule="evenodd" clip-rule="evenodd" d="M8.00034 0.666626C10.0252 0.666793 11.667 2.30835 11.667 4.33329C11.667 6.35823 10.0252 7.99979 8.00034 7.99996C5.97529 7.99996 4.33367 6.35834 4.33367 4.33329C4.33367 2.30825 5.97529 0.666626 8.00034 0.666626ZM8.00034 1.8665C6.63803 1.8665 5.53354 2.97099 5.53354 4.33329C5.53354 5.69559 6.63803 6.80009 8.00034 6.80009C9.3625 6.79992 10.4671 5.69549 10.4671 4.33329C10.4671 2.97109 9.3625 1.86666 8.00034 1.8665Z" fill="#626D7A"/>
</svg>
