<svg width="24" height="24" viewBox="0 0 24 24" fill="none" xmlns="http://www.w3.org/2000/svg">
<path fill-rule="evenodd" clip-rule="evenodd" d="M10.376 1C15.549 1.00026 19.7422 5.19406 19.7422 10.3672L19.7305 10.8486C19.6253 12.9255 18.8418 14.8221 17.5996 16.3262L22.7383 21.4658C23.0898 21.8173 23.0898 22.3868 22.7383 22.7383C22.3868 23.0898 21.8173 23.0898 21.4658 22.7383L16.3252 17.5986C14.7069 18.9315 12.6351 19.7344 10.375 19.7344L9.89355 19.7217C4.94434 19.4708 1.00788 15.3787 1.00781 10.3672L1.02051 9.88477C1.26343 5.09528 5.10403 1.2545 9.89355 1.01172L10.376 1ZM2.80762 10.3672C2.80768 14.5461 6.19615 17.9342 10.375 17.9346C14.5541 17.9346 17.9423 14.5463 17.9424 10.3672C17.9424 6.18801 14.5542 2.7998 10.375 2.7998C6.1961 2.80013 2.80762 6.18822 2.80762 10.3672Z" fill="#020203"/>
</svg>
