<svg width="14" height="19" viewBox="0 0 14 19" fill="none" xmlns="http://www.w3.org/2000/svg">
<path d="M10.8566 0C11.687 0 12.4858 0.321077 13.0761 0.894754C13.6666 1.46882 14 2.2497 14 3.0658V15.7586C14 16.3739 14.0014 16.8856 13.9668 17.2752C13.9349 17.635 13.8633 18.0798 13.5668 18.4131C13.1907 18.8355 12.6285 19.051 12.0615 18.9897C11.6141 18.9413 11.2556 18.6602 10.9854 18.416C10.6929 18.1517 10.3426 17.7748 9.92097 17.3213L7.59805 14.8216C7.38665 14.5942 7.25869 14.4574 7.15609 14.3641C7.0599 14.2767 7.03814 14.2776 7.05756 14.2843C7.00526 14.2665 6.94806 14.266 6.89561 14.2834C6.91547 14.2768 6.89351 14.2753 6.79609 14.3622C6.69263 14.4545 6.56374 14.5904 6.35024 14.8158L4.06439 17.23C3.64353 17.6744 3.2933 18.0444 3.00097 18.3035C2.73016 18.5436 2.37278 18.8186 1.9278 18.8638C1.36273 18.9212 0.804655 18.7041 0.43122 18.2824C0.137309 17.9504 0.0659571 17.5096 0.0341468 17.1522C-0.000173131 16.7662 -8.48988e-06 16.2599 4.4835e-07 15.6519V3.0658C4.4835e-07 2.27914 0.278579 1.4882 0.88878 0.894754C1.48462 0.315597 2.31132 6.25005e-05 3.13366 0H10.8566Z" stroke="#626D7A" stroke-linecap="round" stroke-linejoin="round"/>
</svg>
