<svg width="48" height="42" viewBox="0 0 48 42" fill="none" xmlns="http://www.w3.org/2000/svg">
<path d="M45.3831 2.78291L35.8543 3.16078C35.2486 3.1848 34.8014 3.73502 34.9018 4.33286L35.8308 9.8651L37.2676 14.6905L46.182 4.44899C46.7612 3.78356 46.2647 2.74795 45.3831 2.78291Z" fill="white"/>
<path d="M45.327 1.36634C47.4506 1.28212 48.6471 3.77692 47.2518 5.38001L36.6443 17.5665L34.4715 10.2697L34.4471 10.1857L34.4324 10.0997L33.5037 4.56751C33.262 3.12732 34.3394 1.80213 35.7986 1.74427L45.327 1.36634ZM36.3777 4.55872L37.2137 9.54114L37.8904 11.8146L44.4861 4.23645L36.3777 4.55872Z" fill="black"/>
<path fill-rule="evenodd" clip-rule="evenodd" d="M33.9258 10.3527C35.2512 10.1344 36.408 10.6312 37.1942 11.4312C37.9869 12.2378 38.4246 13.3606 38.4247 14.4524C38.4247 15.8002 37.6984 16.7406 36.9067 17.3326C36.17 17.8835 35.2731 18.2206 34.5776 18.4533L34.5758 18.4514C34.5197 18.4703 34.4625 18.4852 34.4055 18.5009L34.4074 18.5027L26.9074 20.8391C26.685 20.914 26.5178 20.9877 26.3947 21.046C26.3878 21.2265 26.3928 21.5103 26.4441 21.9268L26.5375 22.5365L26.543 22.564L26.5466 22.5933L27.0209 25.8965L29.7528 37.0751L29.8407 37.4999L29.8425 37.5054L29.8865 37.943C29.9281 38.9587 29.5328 39.9304 28.7915 40.6493C27.9543 41.4612 26.7763 41.8688 25.481 41.8688C24.275 41.8688 23.2283 41.4803 22.4396 40.6932C21.6981 39.9529 21.334 39.007 21.1395 38.1554L21.1322 38.1188C21.1322 38.1188 21.1309 38.114 21.1304 38.1115C21.1293 38.1062 21.127 38.098 21.1249 38.0877C21.1204 38.0662 21.1135 38.0342 21.1047 37.9924C21.0871 37.9077 21.0617 37.7819 21.0278 37.6226C20.96 37.3029 20.8604 36.8445 20.7385 36.2951C20.4945 35.1946 20.1579 33.733 19.7864 32.2759C19.5871 31.4942 19.3797 30.7257 19.1748 30.0219C19.0225 30.5642 18.8694 31.1472 18.7189 31.7485C18.0236 34.5266 17.4592 37.3769 17.2815 38.1554C17.087 39.0071 16.723 39.9529 15.9814 40.6932C15.1927 41.4803 14.1461 41.8688 12.9401 41.8688C11.6481 41.8688 10.4736 41.4627 9.63684 40.6548C8.7905 39.8373 8.39055 38.6904 8.57849 37.5219L8.58399 37.4871L8.58948 37.4541L8.60962 37.3589C8.61966 37.3058 8.63021 37.2526 8.64258 37.1996L8.64441 37.1923L11.3416 25.8837L11.8176 22.5914L11.8213 22.5621L11.8268 22.5347C11.8755 22.263 11.9528 21.8102 11.9843 21.3482C11.9999 21.1181 12.0024 20.9175 11.9897 20.7586L11.9879 20.7567C11.9487 20.7407 11.9036 20.7191 11.8488 20.7L2.65869 18.142V17.99C2.26199 17.8081 1.85977 17.5882 1.4978 17.3143C0.713464 16.7206 0 15.7841 0 14.4506C0.000205174 13.358 0.440498 12.2355 1.23413 11.4293C2.07385 10.5764 3.33373 10.0705 4.7699 10.4076L4.76807 10.4094C5.01809 10.4676 5.26471 10.5377 5.50781 10.6182C7.77475 11.1918 14.4566 12.7659 19.1748 12.766C24.2634 12.766 31.6283 10.9362 33.2666 10.5083C33.3502 10.4852 33.439 10.4637 33.5303 10.4406L33.5559 10.4314L33.6145 10.4168L33.653 10.4076L33.6585 10.4058L33.9258 10.3527ZM34.4275 13.6925L34.4257 13.6907L34.4165 13.6925L34.4183 13.6943L34.3781 13.7053C34.3117 13.7219 34.2413 13.7412 34.1657 13.7621L34.1437 13.7676C32.5997 14.1717 24.7851 16.1406 19.1748 16.1406C13.953 16.1405 6.83931 14.4361 4.64356 13.8793L4.57581 13.8628L4.50806 13.839C4.34349 13.7822 4.1746 13.7343 4.00269 13.6943L3.99902 13.6925C3.88644 13.6661 3.82714 13.6795 3.79761 13.6888C3.76102 13.7004 3.70499 13.7292 3.63831 13.7969C3.48456 13.9533 3.3767 14.2178 3.37647 14.4506C3.37647 14.4587 3.37611 14.4652 3.37647 14.4689L3.41309 14.5165C3.43729 14.5426 3.47666 14.578 3.53577 14.6227C3.80128 14.8235 4.24153 15.024 4.88342 15.2398L5.19653 15.3441L12.8229 17.47L12.8705 17.4828L12.9163 17.4974C13.4358 17.6751 13.8933 17.8972 14.2694 18.2006C14.6839 18.535 14.9207 18.9042 15.0659 19.2406C15.4153 20.0452 15.3909 21.0018 15.3516 21.5789C15.3092 22.199 15.2108 22.7739 15.1575 23.073L14.6686 26.4568L14.6576 26.5319L14.6393 26.6069L11.9275 37.965L11.9293 37.9668C11.9277 37.9736 11.9256 37.9828 11.9238 37.9924L11.9165 38.0291L11.9092 38.0639C11.9032 38.1072 11.9072 38.1557 11.9806 38.2268C12.0677 38.311 12.3398 38.4941 12.9401 38.4941C13.3854 38.4941 13.5299 38.373 13.5974 38.3055C13.7117 38.1915 13.8697 37.9364 13.9911 37.4047C14.1295 36.7983 14.7449 33.7271 15.4449 30.9301C15.7971 29.523 16.1896 28.1044 16.582 27.0189C16.7744 26.4869 16.9931 25.9569 17.2412 25.5339C17.3626 25.3271 17.5372 25.0683 17.774 24.84C17.9884 24.6334 18.4661 24.2487 19.1748 24.2485L19.4531 24.2687C20.072 24.3602 20.4725 24.738 20.6323 24.9059C20.8572 25.1421 21.0249 25.4104 21.145 25.6273C21.3923 26.0739 21.6217 26.6403 21.828 27.2222C22.248 28.4068 22.6778 29.9479 23.0585 31.4409C23.4419 32.9446 23.786 34.4443 24.0344 35.5645C24.1588 36.1252 24.2596 36.5933 24.3292 36.9213C24.3639 37.0847 24.3913 37.2136 24.4098 37.3021L24.4299 37.4047L24.527 37.7544C24.628 38.0552 24.738 38.2201 24.8236 38.3055C24.8911 38.3729 25.0356 38.4941 25.481 38.4941C26.0812 38.4941 26.3528 38.3112 26.4404 38.2268C26.5171 38.1524 26.5196 38.1018 26.5118 38.0547C26.5024 37.9997 26.4908 37.9428 26.4771 37.8881L26.4734 37.8753L23.725 26.6161L23.7048 26.5374L23.6939 26.4568L23.2068 23.0748C22.867 21.1391 23.0241 20.0041 23.3954 19.3065L23.4265 19.2388L23.4668 19.1747C23.4694 19.1705 23.4715 19.166 23.4741 19.1619L23.5016 19.1198L23.5217 19.0905C23.7828 18.7059 24.1598 18.4374 24.4409 18.2665C24.8049 18.0451 25.2699 17.8318 25.8472 17.6384L25.8801 17.6274L33.4021 15.28L33.4589 15.2636L33.5065 15.2526L33.9587 15.0914C34.3738 14.9335 34.6797 14.7819 34.8853 14.6282C35.007 14.5371 35.0442 14.4808 35.0501 14.4707C35.0504 14.4671 35.0501 14.4608 35.0501 14.4524C35.0499 14.2194 34.9409 13.954 34.7864 13.7969C34.7196 13.729 34.6635 13.7004 34.6271 13.6888C34.5975 13.6795 34.5389 13.6664 34.4275 13.6925ZM26.3251 20.9563C26.329 20.9502 26.3357 20.9444 26.3397 20.938C26.3431 20.9325 26.3458 20.9268 26.3489 20.9215L26.347 20.9197C26.3397 20.9319 26.3327 20.9443 26.3251 20.9563Z" fill="#020203"/>
<path fill-rule="evenodd" clip-rule="evenodd" d="M18.1165 0.107914C19.2074 -0.108976 20.3389 0.00267935 21.3666 0.428348C22.3938 0.854049 23.2719 1.57481 23.8898 2.49927C24.5077 3.42421 24.8383 4.51252 24.8383 5.62488C24.8365 7.11603 24.2429 8.54569 23.1885 9.6001L22.7765 9.97364C21.776 10.7936 20.5182 11.2485 19.2133 11.2499L18.7976 11.2352C17.9696 11.1739 17.1655 10.9283 16.4429 10.5193L16.0876 10.3014C15.2785 9.76058 14.6246 9.02042 14.1888 8.1554L14.0167 7.7782C13.6443 6.87901 13.5122 5.89958 13.6304 4.93824L13.6963 4.52808C13.8862 3.57341 14.32 2.68552 14.9524 1.95179L15.2362 1.64783C15.9246 0.959425 16.7781 0.463636 17.7118 0.20496L18.1165 0.107914ZM18.7738 3.41846C18.3376 3.50536 17.9366 3.71919 17.6221 4.0337C17.3077 4.34819 17.0937 4.74932 17.0068 5.18543C16.9202 5.62164 16.9649 6.07457 17.135 6.48548C17.3053 6.89634 17.5929 7.24909 17.9626 7.49622C18.3321 7.743 18.7672 7.87306 19.2114 7.87342C19.8081 7.87231 20.3806 7.63613 20.8026 7.21424C21.2241 6.79273 21.4619 6.22087 21.4636 5.62488L21.438 5.29346C21.3893 4.96637 21.2698 4.65154 21.0846 4.37427C20.8374 4.0044 20.4848 3.71692 20.0739 3.54663C19.6628 3.37641 19.2102 3.33166 18.7738 3.41846Z" fill="#020203"/>
</svg>
